HIERARCHY
ROOT Hips
{
	OFFSET -0.179506 -22.333345 2.821913
	CHANNELS 6 Xposition Yposition Zposition Zrotation Yrotation Xrotation 
	JOINT LeftUpLeg
	{
		OFFSET 6.951974 -9.140623 -0.681533
		CHANNELS 3 Zrotation Yrotation Xrotation
		JOINT LeftLeg
		{
			OFFSET 3.427654 -37.519855 -0.449580
			CHANNELS 3 Zrotation Yrotation Xrotation
			JOINT LeftFoot
			{
				OFFSET -1.359570 -39.796059 -4.369333
				CHANNELS 3 Zrotation Yrotation Xrotation
				JOINT LeftToe
				{
					OFFSET 2.635814 -5.579078 11.928840
					CHANNELS 3 Zrotation Yrotation Xrotation
					End Site
					{
						OFFSET 0.000000 0.000000 0.000000
					}
				}
			}
		}
	}
	JOINT RightUpLeg
	{
		OFFSET -6.767048 -9.052170 -0.431982
		CHANNELS 3 Zrotation Yrotation Xrotation
		JOINT RightLeg
		{
			OFFSET -3.829005 -38.256897 -0.885003
			CHANNELS 3 Zrotation Yrotation Xrotation
			JOINT RightFoot
			{
				OFFSET 1.577377 -39.841461 -4.231180
				CHANNELS 3 Zrotation Yrotation Xrotation
				JOINT RightToe
				{
					OFFSET -2.537174 -4.814398 12.334795
					CHANNELS 3 Zrotation Yrotation Xrotation
					End Site
					{
						OFFSET 0.000000 0.000000 0.000000
					}
				}
			}
		}
	}
	JOINT Spine
	{
		OFFSET -0.253288 10.896323 -2.669631
		CHANNELS 3 Zrotation Yrotation Xrotation
		JOINT Spine1
		{
			OFFSET 0.548704 13.518043 0.109247
			CHANNELS 3 Zrotation Yrotation Xrotation
			JOINT Spine2
			{
				OFFSET 0.145701 5.292222 2.542457
				CHANNELS 3 Zrotation Yrotation Xrotation
				JOINT Neck
				{
					OFFSET -0.277840 21.387037 -4.285703
					CHANNELS 3 Zrotation Yrotation Xrotation
					JOINT Head
					{
						OFFSET 0.515184 6.496960 5.134897
						CHANNELS 3 Zrotation Yrotation Xrotation
						End Site
						{
							OFFSET 0.000000 0.000000 0.000000
						}
					}
				}
				JOINT LeftShoulder
				{
					OFFSET 7.884473 12.174932 -3.408961
					CHANNELS 3 Zrotation Yrotation Xrotation
					JOINT LeftArm
					{
						OFFSET 9.097692 3.046888 -0.886815
						CHANNELS 3 Zrotation Yrotation Xrotation
						JOINT LeftForeArm
						{
							OFFSET 25.961220 -1.277207 -2.745643
							CHANNELS 3 Zrotation Yrotation Xrotation
							JOINT LeftHand
							{
								OFFSET 24.923361 0.898606 -0.117091
								CHANNELS 3 Zrotation Yrotation Xrotation
								End Site
								{
									OFFSET 0.000000 0.000000 0.000000
								}
							}
						}
					}
				}
				JOINT RightShoulder
				{
					OFFSET -8.175920 11.883285 -3.861528
					CHANNELS 3 Zrotation Yrotation Xrotation
					JOINT RightArm
					{
						OFFSET -9.601238 3.255117 -0.914307
						CHANNELS 3 Zrotation Yrotation Xrotation
						JOINT RightForeArm
						{
							OFFSET -25.374195 -1.332924 -2.140099
							CHANNELS 3 Zrotation Yrotation Xrotation
							JOINT RightHand
							{
								OFFSET -25.529810 0.777228 -0.555919
								CHANNELS 3 Zrotation Yrotation Xrotation
								End Site
								{
									OFFSET 0.000000 0.000000 0.000000
								}
							}
						}
					}
				}
			}
		}
	}
}
MOTION
Frames: 7
Frame Time: 0.033333
12.085779 -8.441025 89.211601 -120.885230 2.217857 85.766871 10.056467 5.237667 -3.132145 -4.742796 2.454343 20.725926 1.526509 12.479383 -22.811357 nan nan nan -15.145164 -13.620278 -9.782473 3.316229 -16.117293 16.368430 5.709806 -8.230220 0.106501 nan nan nan -4.716091 2.970978 2.594081 7.607050 -5.082264 9.130946 1.193180 0.326027 -3.900802 -0.807830 -18.201207 14.109282 3.624818 -16.061594 16.149622 -14.253615 -12.467329 -0.442826 -70.049270 -50.010475 38.132823 96.333905 -76.686810 -74.697923 19.298817 -14.533227 -12.803643 16.848604 7.470353 -6.463447 37.068286 20.550924 -1.677431 -82.033338 52.223951 -76.833470 -17.990011 6.733375 -19.207206 
12.099907 -8.473701 89.230904 -120.840673 2.227677 85.816653 10.085534 5.221452 -3.292424 -4.772853 2.441754 20.959150 1.661708 12.455614 -23.083952 nan nan nan -15.104975 -13.594177 -9.783912 3.339424 -16.144573 16.250886 5.749618 -8.238783 0.216248 nan nan nan -4.775682 2.969754 2.470937 7.645883 -5.128558 9.249214 1.221868 0.282303 -3.973606 -0.743825 -18.172112 13.985822 3.589789 -16.109331 16.204265 -14.202286 -12.563518 -0.339001 -69.829824 -50.048518 37.885038 96.152102 -76.723905 -74.549562 19.053608 -14.616922 -12.541468 16.826995 7.554919 -6.365292 36.968300 20.536432 -1.796131 -81.817404 52.228466 -76.573802 -17.832770 6.777113 -19.054918 
12.082206 -8.510132 89.236565 -120.792190 2.258508 85.846639 10.087002 5.227943 -3.340347 -4.789847 2.452420 21.039037 1.664977 12.447104 -23.137584 nan nan nan -15.084303 -13.598101 -9.763752 3.362247 -16.174456 16.140912 5.762910 -8.282161 0.369089 nan nan nan -4.774420 2.974393 2.351583 7.674087 -5.163947 9.385591 1.240253 0.266719 -4.029892 -0.723882 -18.223122 13.867603 3.522408 -16.141537 16.253177 -14.220082 -12.674494 -0.252827 -69.675750 -50.088720 37.704589 96.117747 -76.734923 -74.535135 18.944848 -14.611792 -12.298213 16.834651 7.649094 -6.281951 36.762494 20.521701 -1.952040 -81.573638 52.195097 -76.302444 -17.792846 6.768906 -18.735957 
12.015811 -8.430350 89.342293 -120.663751 2.422895 85.758438 10.220939 5.179028 -3.213221 -4.638349 2.588467 20.956095 1.356808 12.079686 -23.169959 nan nan nan -15.020327 -13.464781 -9.547970 3.328732 -16.829900 15.938255 6.068006 -7.872601 0.481128 nan nan nan -5.361184 3.300626 2.112192 8.106671 -5.347015 9.892340 2.032077 0.402769 -4.115167 -0.237587 -17.945934 14.205604 3.667782 -16.964588 15.090256 -13.220928 -13.495457 0.545620 -72.076061 -49.206716 38.058159 105.085606 -75.559830 -85.792413 21.046261 -16.418747 -16.553078 16.078005 8.507570 -6.020031 36.609903 19.081106 -2.269044 -82.741639 51.522372 -79.337463 -18.792728 7.791272 -21.784356 
12.018740 -8.356899 89.353310 -120.634448 2.339104 85.717740 10.156240 5.243193 -3.210019 -4.584292 2.706400 20.973627 1.370549 11.969949 -23.222234 nan nan nan -15.106081 -13.454974 -9.605798 3.272037 -16.891583 16.037821 6.043902 -7.728685 0.403105 nan nan nan -5.365930 3.410236 2.192557 8.071940 -5.325156 10.013601 2.030078 0.348633 -4.396221 -0.325200 -17.915992 14.424377 3.658365 -16.984399 14.974503 -13.604285 -13.587630 0.553592 -71.813231 -48.959666 38.009229 104.368672 -75.714468 -85.407940 21.082693 -16.808647 -16.416124 16.226423 8.531034 -6.094039 36.620611 18.731817 -2.158931 -83.179857 51.566260 -80.235346 -18.806599 8.123758 -22.374984 
11.877167 -8.171326 89.432823 -120.769705 2.193498 84.976719 10.215926 5.208720 -1.959384 -4.114311 4.166726 20.514054 1.313713 10.303359 -23.174204 nan nan nan -15.618482 -13.484681 -8.653649 2.917565 -18.426458 16.234371 7.131020 -5.503059 0.342822 nan nan nan -5.496558 4.101943 3.261291 7.927121 -4.937972 12.399112 2.185350 1.595961 -7.403718 1.507448 -16.515160 14.391504 4.347646 -20.723360 12.765012 -13.876942 -14.186399 1.712013 -73.888471 -50.073245 38.807421 104.935867 -76.317718 -87.841280 -8.320401 -27.086323 -9.635016 17.763522 9.602066 -2.420917 33.891247 14.802304 -7.609907 -87.252731 44.643976 -77.913375 7.255267 11.513284 -5.353794 
11.882908 -8.123250 89.443268 -120.761898 2.178261 84.921901 10.252401 5.301125 -1.973815 -4.091595 4.274896 20.595026 1.313374 10.162314 -23.093563 nan nan nan -15.658105 -13.506892 -8.627156 2.885821 -18.524525 16.266681 7.079244 -5.367033 0.372555 nan nan nan -5.439700 4.156239 3.326239 7.929771 -4.907692 12.572218 2.117390 1.506772 -7.662607 1.631962 -16.447795 14.486031 4.216548 -20.825852 12.753693 -14.062413 -14.056510 1.695689 -74.012678 -49.968220 38.927919 104.580875 -76.375680 -87.688959 -9.040978 -27.209192 -9.008476 17.756757 9.495176 -2.525708 34.086690 14.761925 -7.476042 -87.316516 44.612954 -78.042247 7.577292 11.561921 -5.161789 
